/* XPM */
static char * bottom_left_active_xpm[] = {
"22 23 2 1",
" 	c None",
".  c #30343F s active_shadow_2",
".                     ",
".                     ",
".                     ",
".                     ",
".                     ",
".                     ",
".                     ",
".                     ",
".                     ",
".                     ",
".                     ",
".                     ",
".                     ",
".                     ",
".                     ",
".                     ",
".                     ",
".                     ",
".                     ",
".                     ",
".                     ",
".                     ",
"......................"};
