/* XPM */
static char * close_prelight_xpm[] = {
"32 21 36 1",
" 	c None",
".	c #F16B76",
"+	c #F1707A",
"@	c #F6B6B9",
"#	c #F5A7AC",
"$	c #F16F79",
"%	c #F1727C",
"&	c #FAD5D7",
"*	c #FDEBEC",
"=	c #F6ADB2",
"-	c #F1707B",
";	c #F16C77",
">	c #F38990",
",	c #FBD9DB",
"'	c #FDEBED",
")	c #F6B0B5",
"!	c #F16C76",
"~	c #F38A91",
"{	c #FBD8DA",
"]	c #FEF2F3",
"^	c #F1717C",
"/	c #F8C0C4",
"(	c #FEF8F8",
"_	c #F6B1B6",
":	c #FDECEE",
"<	c #FBDCDE",
"[	c #F7B3B8",
"}	c #FDEDEE",
"|	c #FAD4D6",
"1	c #F3878E",
"2	c #F1737D",
"3	c #FAD9DB",
"4	c #FAD3D5",
"5	c #F3858D",
"6	c #F27E87",
"7	c #F27983",
"................................",
"................................",
"................................",
"................................",
"................................",
"................................",
"................................",
"...........+@#$..$#@+...........",
"...........%&*=--=*&%...........",
"...........;>,'))',>;...........",
"............!~{]]{~!............",
".............^/((/^.............",
"............%_:<<:_%............",
"...........$[}|11|}[$...........",
"...........2345..5432...........",
"...........;67....76;...........",
"................................",
"................................",
"................................",
"................................",
"................................"};
