/* XPM */
static char * close_prelight_xpm[] = {
"31 23 4 1",
" 	c None",
".	c #FF0000 s active_color_1",
"Z  c #30343F s active_shadow_2",
"+	c #FFFFFF s active_text_color",
"                               ",
"...............................",
"...............................",
"...............................",
"...............................",
"...............................",
"...............................",
"............+.....+............",
"...........+++...+++...........",
"............+++.+++............",
".............+++++.............",
"..............+++..............",
".............+++++.............",
"............+++.+++............",
"...........+++...+++...........",
"............+.....+............",
"...............................",
"...............................",
"...............................",
"...............................",
"...............................",
"...............................",
"ZZZZZZZZZZZZZZZZZZZZZZZZZZZZZZZ"};
