/* XPM */
static char * hide_inactive_xpm[] = {
"32 23 11 1",
" 	c None",
".	c #30343F s inactive_color_2",
"Z  c #30343F s inactive_color_2",
"+	c #31343F",
"@	c #31353F",
"#	c #3C3F48",
"$	c #A8A9AB",
"%	c #BBBBBC",
"&	c #373B44",
"*	c #838487",
"=	c #919294",
"                                ",
"................................",
"................................",
"................................",
"................................",
"................................",
"................................",
"................................",
"................................",
"................................",
"............+@@@@@@+............",
"...........#$%%%%%%$#...........",
"...........&*======*&...........",
"................................",
"................................",
"................................",
"................................",
"................................",
"................................",
"................................",
"................................",
"................................",
"ZZZZZZZZZZZZZZZZZZZZZZZZZZZZZZZZ"};
