/* XPM */
static char * hide_inactive_xpm[] = {
"31 23 4 1",
" 	c None",
".	c #30343F s inactive_color_1",
"Z  c #30343F s inactive_color_1",
"+	c #FFFFFF s active_text_color",
"                               ",
"...............................",
"...............................",
"...............................",
"...............................",
"...............................",
"...............................",
"...............................",
"...............................",
"...............................",
"...............................",
"...........+++++++++...........",
"...........+++++++++...........",
"...............................",
"...............................",
"...............................",
"...............................",
"...............................",
"...............................",
"...............................",
"...............................",
"...............................",
"ZZZZZZZZZZZZZZZZZZZZZZZZZZZZZZZ"};
