/* XPM */
static char * hide_prelight_xpm[] = {
"31 23 4 1",
" 	c None",
".	c #4B4F5A s inactive_hilight_1",
"Z  c #30343F s active_shadow_2",
"+	c #FFFFFF s active_text_color",
"                               ",
"...............................",
"...............................",
"...............................",
"...............................",
"...............................",
"...............................",
"...............................",
"...............................",
"...............................",
"...............................",
"...........+++++++++...........",
"...........+++++++++...........",
"...............................",
"...............................",
"...............................",
"...............................",
"...............................",
"...............................",
"...............................",
"...............................",
"...............................",
"ZZZZZZZZZZZZZZZZZZZZZZZZZZZZZZZ"};
