/* XPM */
static char * hide_pressed_xpm[] = {
"32 23 9 1",
" 	c None",
".	c #4B4F5A s inactive_text_color",
"Z  c #30343F s active_shadow_2",
"+	c #535660",
"@	c #ADAEB1",
"#	c #BEBFC1",
"$	c #4F535D",
"%	c #8C8D92",
"&	c #98999D",
"                                ",
"................................",
"................................",
"................................",
"................................",
"................................",
"................................",
"................................",
"................................",
"................................",
"................................",
"...........+@######@+...........",
"...........$%&&&&&&%$...........",
"................................",
"................................",
"................................",
"................................",
"................................",
"................................",
"................................",
"................................",
"................................",
"ZZZZZZZZZZZZZZZZZZZZZZZZZZZZZZZZ"};
