/* XPM */
static char * maximize_pressed_xpm[] = {
"32 21 11 1",
" 	c None",
".	c #4B4F5A",
"+	c #4F535D",
"@	c #8C8D92",
"#	c #98999D",
"$	c #5A5D66",
"%	c #DDDEDF",
"&	c #C4C5C7",
"*	c #BEBFC1",
"=	c #D7D8D9",
"-	c #6A6D74",
"................................",
"................................",
"................................",
"................................",
"................................",
"................................",
"...........+@######@+...........",
"...........$%&****&%$...........",
"...........$=-....-=$...........",
"...........$=-....-=$...........",
"...........$=-....-=$...........",
"...........$=-....-=$...........",
"...........$=-....-=$...........",
"...........$%&****&%$...........",
"...........+@######@+...........",
"................................",
"................................",
"................................",
"................................",
"................................",
"................................"};
