/* XPM */
static char * maximize_pressed_xpm[] = {
"31 23 4 1",
" 	c None",
".	c #4B4F5A s inactive_text_color",
"Z  c #30343F s active_shadow_2",
"+	c #FFFFFF s active_text_color",
"                               ",
"...............................",
"...............................",
"...............................",
"...............................",
"...............................",
"...............................",
"...........+++++++++...........",
"...........+++++++++...........",
"...........++.....++...........",
"...........++.....++...........",
"...........++.....++...........",
"...........++.....++...........",
"...........++.....++...........",
"...........+++++++++...........",
"...........+++++++++...........",
"...............................",
"...............................",
"...............................",
"...............................",
"...............................",
"...............................",
"ZZZZZZZZZZZZZZZZZZZZZZZZZZZZZZZ"};
