/* XPM */
static char * menu_inactive_xpm[] = {
"21 23 3 1",
" 	c None",
".	c #30343F",
"Z  c #30343F",
"                     ",
".....................",
".....................",
".....................",
".....................",
".....................",
".....................",
".....................",
".....................",
".....................",
".....................",
".....................",
".....................",
".....................",
".....................",
".....................",
".....................",
".....................",
".....................",
".....................",
".....................",
".....................",
"ZZZZZZZZZZZZZZZZZZZZZ"};
