/* XPM */
static char * menu_active_xpm[] = {
"21 23 3 1",
" 	c None",
".	c #30343F s active_shadow_2",
"Z  c #30343F s active_shadow_2",
"                     ",
".....................",
".....................",
".....................",
".....................",
".....................",
".....................",
".....................",
".....................",
".....................",
".....................",
".....................",
".....................",
".....................",
".....................",
".....................",
".....................",
".....................",
".....................",
".....................",
".....................",
".....................",
"ZZZZZZZZZZZZZZZZZZZZZ"};
