/* XPM */
static char * top_right_active_xpm[] = {
"96 80 2 1",
" 	c None",
".  c #30343F s active_shadow_2",
"................................................................................................",
"................................................................................................",
"................................................................................................",
"................................................................................................",
"................................................................................................",
"................................................................................................",
"................................................................................................",
"................................................................................................",
"................................................................................................",
"................................................................................................",
"................................................................................................",
"................................................................................................",
"................................................................................................",
"................................................................................................",
"................................................................................................",
"................................................................................................",
"................................................................................................",
"................................................................................................",
"................................................................................................",
"................................................................................................",
"................................................................................................",
"................................................................................................",
"................................................................................................",
"                                                                                               .",
"                                                                                               .",
"                                                                                               .",
"                                                                                               .",
"                                                                                               .",
"                                                                                               .",
"                                                                                               .",
"                                                                                               .",
"                                                                                               .",
"                                                                                               .",
"                                                                                               .",
"                                                                                               .",
"                                                                                               .",
"                                                                                               .",
"                                                                                               .",
"                                                                                               .",
"                                                                                               .",
"                                                                                               .",
"                                                                                               .",
"                                                                                               .",
"                                                                                               .",
"                                                                                               .",
"                                                                                               .",
"                                                                                               .",
"                                                                                               .",
"                                                                                               .",
"                                                                                               .",
"                                                                                               .",
"                                                                                               .",
"                                                                                               .",
"                                                                                               .",
"                                                                                               .",
"                                                                                               .",
"                                                                                               .",
"                                                                                               .",
"                                                                                               .",
"                                                                                               .",
"                                                                                               .",
"                                                                                               .",
"                                                                                               .",
"                                                                                               .",
"                                                                                               .",
"                                                                                               .",
"                                                                                               .",
"                                                                                               .",
"                                                                                               .",
"                                                                                               .",
"                                                                                               .",
"                                                                                               .",
"                                                                                               .",
"                                                                                               .",
"                                                                                               .",
"                                                                                               .",
"                                                                                               .",
"                                                                                               .",
"                                                                                               .",
"                                                                                               ."};
