/* XPM */
static char * top_left_inactive_xpm[] = {
"22 80 2 1",
" 	c None",
".  c #30343F",
"......................",
"......................",
"......................",
"......................",
"......................",
"......................",
"......................",
"......................",
"......................",
"......................",
"......................",
"......................",
"......................",
"......................",
"......................",
"......................",
"......................",
"......................",
"......................",
"......................",
"......................",
"......................",
"......................",
".                     ",
".                     ",
".                     ",
".                     ",
".                     ",
".                     ",
".                     ",
".                     ",
".                     ",
".                     ",
".                     ",
".                     ",
".                     ",
".                     ",
".                     ",
".                     ",
".                     ",
".                     ",
".                     ",
".                     ",
".                     ",
".                     ",
".                     ",
".                     ",
".                     ",
".                     ",
".                     ",
".                     ",
".                     ",
".                     ",
".                     ",
".                     ",
".                     ",
".                     ",
".                     ",
".                     ",
".                     ",
".                     ",
".                     ",
".                     ",
".                     ",
".                     ",
".                     ",
".                     ",
".                     ",
".                     ",
".                     ",
".                     ",
".                     ",
".                     ",
".                     ",
".                     ",
".                     ",
".                     ",
".                     ",
".                     ",
".                     "};
