/* XPM */
static char * top_right_inactive_xpm[] = {
"62 62 2 1",
" 	c None",
".  c #30343F s inactive_color_1",
"..............................................................",
"..............................................................",
"..............................................................",
"..............................................................",
"..............................................................",
"..............................................................",
"..............................................................",
"..............................................................",
"..............................................................",
"..............................................................",
"..............................................................",
"..............................................................",
"..............................................................",
"..............................................................",
"..............................................................",
"..............................................................",
"..............................................................",
"..............................................................",
"..............................................................",
"..............................................................",
"..............................................................",
"..............................................................",
"..............................................................",
"                                                             .",
"                                                             .",
"                                                             .",
"                                                             .",
"                                                             .",
"                                                             .",
"                                                             .",
"                                                             .",
"                                                             .",
"                                                             .",
"                                                             .",
"                                                             .",
"                                                             .",
"                                                             .",
"                                                             .",
"                                                             .",
"                                                             .",
"                                                             .",
"                                                             .",
"                                                             .",
"                                                             .",
"                                                             .",
"                                                             .",
"                                                             .",
"                                                             .",
"                                                             .",
"                                                             .",
"                                                             .",
"                                                             .",
"                                                             .",
"                                                             .",
"                                                             .",
"                                                             .",
"                                                             .",
"                                                             .",
"                                                             .",
"                                                             .",
"                                                             .",
"                                                             ."};
