/* XPM */
static char * top_left_inactive_xpm[] = {
"23 80 2 1",
" 	c None",
".  c #30343F",
".......................",
".......................",
".......................",
".......................",
".......................",
".......................",
".......................",
".......................",
".......................",
".......................",
".......................",
".......................",
".......................",
".......................",
".......................",
".......................",
".......................",
".......................",
".......................",
".......................",
".......................",
".......................",
".......................",
".                      ",
".                      ",
".                      ",
".                      ",
".                      ",
".                      ",
".                      ",
".                      ",
".                      ",
".                      ",
".                      ",
".                      ",
".                      ",
".                      ",
".                      ",
".                      ",
".                      ",
".                      ",
".                      ",
".                      ",
".                      ",
".                      ",
".                      ",
".                      ",
".                      ",
".                      ",
".                      ",
".                      ",
".                      ",
".                      ",
".                      ",
".                      ",
".                      ",
".                      ",
".                      ",
".                      ",
".                      ",
".                      ",
".                      ",
".                      ",
".                      ",
".                      ",
".                      ",
".                      ",
".                      ",
".                      ",
".                      ",
".                      ",
".                      ",
".                      ",
".                      ",
".                      ",
".                      ",
".                      ",
".                      ",
".                      ",
".                      "};
