/* XPM */
static char * close_inactive_xpm[] = {
"32 21 33 1",
" 	c None",
".	c #4B4F5A",
"+	c #535660",
"@	c #A2A3A6",
"#	c #5C5E64",
"$	c #4F535D",
"%	c #929294",
"&	c #B7B7B7",
"*	c #5D5F64",
"=	c #4B4E59",
"-	c #4E515A",
";	c #919193",
">	c #B3B3B3",
",	c #616368",
"'	c #4B4F58",
")	c #949495",
"!	c #BDBDBE",
"~	c #4A4E59",
"{	c #606266",
"]	c #DBDBDB",
"^	c #65676B",
"/	c #B5B5B6",
"(	c #8D8E8F",
"_	c #636469",
":	c #B5B5B5",
"<	c #8F8F91",
"[	c #4B4E58",
"}	c #555862",
"|	c #B9B9BA",
"1	c #898A8C",
"2	c #4D515B",
"3	c #65676F",
"4	c #4E515B",
"................................",
"................................",
"................................",
"................................",
"................................",
"................................",
"................................",
"...........+@#....#@+...........",
"...........$%&*==*&%$...........",
"............-;>,,>;-............",
".............')!!)'.............",
".............~{]]{~.............",
"............~^/((/^~............",
"............_:<[[<:_............",
"...........}|1[..[1|}...........",
"...........234....432...........",
"................................",
"................................",
"................................",
"................................",
"................................"};
