/* XPM */
static char * maximize_active_xpm[] = {
"32 21 14 1",
" 	c None",
".	c #30343F",
"+	c #373B44",
"@	c #838488",
"#	c #919295",
"$	c #919294",
"%	c #474951",
"&	c #DCDCDC",
"*	c #C1C1C3",
"=	c #BBBBBC",
"-	c #474A51",
";	c #D5D6D6",
">	c #5C5E63",
",	c #31353F",
"................................",
"................................",
"................................",
"................................",
"................................",
"................................",
"...........+@#$$$$#@+...........",
"...........%&*====*&%...........",
"...........-;>,,,,>;-...........",
"...........-;>....>;-...........",
"...........-;>....>;-...........",
"...........-;>....>;-...........",
"...........-;>,,,,>;-...........",
"...........%&*====*&%...........",
"...........+@#$$$$#@+...........",
"................................",
"................................",
"................................",
"................................",
"................................",
"................................"};
