/* XPM */
static char * maximize_toggled_inactive_xpm[] = {
"32 21 42 1",
" 	c None",
".	c #30343F",
"+	c #5B5D63",
"@	c #909194",
"#	c #919294",
"$	c #919295",
"%	c #838488",
"&	c #373B44",
"*	c #31353F",
"=	c #3C3F48",
"-	c #9A9B9D",
";	c #DDDDDD",
">	c #BEBEC0",
",	c #C2C2C3",
"'	c #DCDCDC",
")	c #474951",
"!	c #42454D",
"~	c #C8C8C9",
"{	c #DFDFDF",
"]	c #E3E3E4",
"^	c #D3D3D4",
"/	c #D8D8D9",
"(	c #999A9C",
"_	c #D5D6D6",
":	c #474A51",
"<	c #D7D7D8",
"[	c #797B7E",
"}	c #626469",
"|	c #636469",
"1	c #C0C0C1",
"2	c #A8A9AB",
"3	c #5C5E63",
"4	c #31343F",
"5	c #B7B8B9",
"6	c #B8B8B9",
"7	c #B3B4B5",
"8	c #313540",
"9	c #B9BABB",
"0	c #E2E2E3",
"a	c #C1C1C3",
"b	c #BBBBBC",
"c	c #DBDBDC",
"................................",
"................................",
"................................",
"................................",
"................................",
"................................",
".............+@###$%&...........",
"...........*=-;>>>,')...........",
"...........!~{]^^/(_:...........",
"...........:<[}}|12_:...........",
"...........:_3..452_:...........",
"...........:_3..467<:...........",
"...........:_3**890~!...........",
"...........)'abbbc-=*...........",
"...........&%$###@+.............",
"................................",
"................................",
"................................",
"................................",
"................................",
"................................"};
