/* XPM */
static char * maximize_toggled_pressed_xpm[] = {
"32 21 37 1",
" 	c None",
".	c #4B4F5A",
"+	c #696C73",
"@	c #97989C",
"#	c #98999D",
"$	c #8C8D92",
"%	c #4F535D",
"&	c #535660",
"*	c #A0A1A5",
"=	c #DEDFDF",
"-	c #C1C2C4",
";	c #C5C6C7",
">	c #DDDEDF",
",	c #5A5D66",
"'	c #575A63",
")	c #CBCBCD",
"!	c #E0E0E1",
"~	c #E4E5E5",
"{	c #D5D6D7",
"]	c #DADADB",
"^	c #9FA0A4",
"/	c #D7D8D9",
"(	c #D9D9DA",
"_	c #83858A",
":	c #6F7278",
"<	c #707278",
"[	c #C3C3C5",
"}	c #ADAEB1",
"|	c #6A6D74",
"1	c #BBBCBE",
"2	c #B7B8BA",
"3	c #4C505B",
"4	c #BDBEC0",
"5	c #E3E4E4",
"6	c #C4C5C7",
"7	c #BEBFC1",
"8	c #DDDDDE",
"................................",
"................................",
"................................",
"................................",
"................................",
"................................",
".............+@####$%...........",
"............&*=---;>,...........",
"...........')!~{{]^/,...........",
"...........,(_::<[}/,...........",
"...........,/|...1}/,...........",
"...........,/|...12(,...........",
"...........,/|..345)'...........",
"...........,>67778*&............",
"...........%$####@+.............",
"................................",
"................................",
"................................",
"................................",
"................................",
"................................"};
