/* XPM */
static char * close_active_xpm[] = {
"36 24 29 1",
" 	c None",
".	c #4B4F5A",
"+	c #4C505A",
"@	c #7A7C82",
"#	c #909194",
"$	c #4C4F58",
"%	c #797A7F",
"&	c #B7B7B7",
"*	c #919193",
"=	c #4D5059",
"-	c #4A4D58",
";	c #78797C",
">	c #B8B8B8",
",	c #8E8F90",
"'	c #4F525A",
")	c #4A4E58",
"!	c #757679",
"~	c #BBBBBC",
"{	c #4B4F59",
"]	c #757678",
"^	c #DDDDDD",
"/	c #8F8F91",
"(	c #CECECE",
"_	c #767679",
":	c #4D515A",
"<	c #888A8E",
"[	c #B8B8B9",
"}	c #666870",
"|	c #73757B",
"....................................",
"....................................",
"....................................",
"....................................",
"....................................",
"....................................",
"....................................",
"..............+......+..............",
".............@#$....$#@.............",
".............%&*=..=*&%.............",
".............-;>,'',>;-.............",
"..............)!~,,~!)..............",
"...............{]^^]{...............",
"...............=/((/=...............",
"..............$*>__>*$..............",
".............:*&;));&*:.............",
".............<[;-..-;[<.............",
".............}|)....)|}.............",
"....................................",
"....................................",
"....................................",
"....................................",
"....................................",
"...................................."};
