/* XPM */
static char * hide_active_xpm[] = {
"36 24 11 1",
" 	c None",
".	c #30343F",
"+	c #4A4D54",
"@	c #6C6D72",
"#	c #6D6F73",
"$	c #858689",
"%	c #D3D3D4",
"&	c #D6D6D7",
"*	c #40434B",
"=	c #57595F",
"-	c #585A60",
"....................................",
"....................................",
"....................................",
"....................................",
"....................................",
"....................................",
"....................................",
"....................................",
"....................................",
"....................................",
"....................................",
".............+@######@+.............",
".............$%&&&&&&%$.............",
".............*=------=*.............",
"....................................",
"....................................",
"....................................",
"....................................",
"....................................",
"....................................",
"....................................",
"....................................",
"....................................",
"...................................."};
