/* XPM */
static char * maximize_toggled_pressed_xpm[] = {
"36 24 22 1",
" 	c None",
".	c #4B4F5A",
"+	c #4D515B",
"@	c #85878C",
"#	c #A2A3A7",
"$	c #A1A2A5",
"%	c #717379",
"&	c #555962",
"*	c #C6C7C9",
"=	c #D9DADB",
"-	c #C7C8CA",
";	c #E2E2E3",
">	c #E4E5E5",
",	c #DADADB",
"'	c #C9C9CB",
")	c #A7A8AB",
"!	c #D8D9DA",
"~	c #A4A5A8",
"{	c #A3A4A7",
"]	c #C6C6C8",
"^	c #51545E",
"/	c #565963",
"....................................",
"....................................",
"....................................",
"....................................",
"....................................",
"....................................",
"....................................",
"..............+@#####$%.............",
".............+&*=----;$.............",
".............@*>,--')-#.............",
".............#!~{##]'-#.............",
".............#]^...#--#.............",
".............#]^...#--#.............",
".............#]^...{,=#.............",
".............#*/^^^~>*@.............",
".............$;*]]]!*&+.............",
".............%$#####@+..............",
"....................................",
"....................................",
"....................................",
"....................................",
"....................................",
"....................................",
"...................................."};
