/* XPM */
static char * maximize_toggled_active_xpm[] = {
"36 24 21 1",
" 	c None",
".	c #30343F",
"+	c #333741",
"@	c #7C7D81",
"#	c #9D9DA0",
"$	c #9B9B9E",
"%	c #64666B",
"&	c #40434C",
"*	c #C3C4C5",
"=	c #D8D8D8",
"-	c #C4C5C6",
";	c #E1E1E1",
">	c #E3E3E4",
",	c #D8D8D9",
"'	c #C6C6C7",
")	c #A1A2A4",
"!	c #D6D7D7",
"~	c #9F9FA1",
"{	c #C3C3C4",
"]	c #393D46",
"^	c #41444C",
"....................................",
"....................................",
"....................................",
"....................................",
"....................................",
"....................................",
"....................................",
"..............+@#####$%.............",
".............+&*=----;$.............",
".............@*>,--')-#.............",
".............#!~###{'-#.............",
".............#{]...#--#.............",
".............#{]...#--#.............",
".............#{]...#,=#.............",
".............#*^]]]~>*@.............",
".............$;*{{{!*&+.............",
".............%$#####@+..............",
"....................................",
"....................................",
"....................................",
"....................................",
"....................................",
"....................................",
"...................................."};
