/* XPM */
static char * maximize_active_xpm[] = {
"36 24 10 1",
" 	c None",
".	c #30343F",
"+	c #64666B",
"@	c #9B9B9E",
"#	c #9D9DA0",
"$	c #E1E1E1",
"%	c #C3C4C5",
"&	c #C3C3C4",
"*	c #41444C",
"=	c #393D46",
"....................................",
"....................................",
"....................................",
"....................................",
"....................................",
"....................................",
"....................................",
".............+@######@+.............",
".............@$%&&&&%$@.............",
".............#%*====*%#.............",
".............#&=....=&#.............",
".............#&=....=&#.............",
".............#&=....=&#.............",
".............#&=....=&#.............",
".............#%*====*%#.............",
".............@$%&&&&%$@.............",
".............+@######@+.............",
"....................................",
"....................................",
"....................................",
"....................................",
"....................................",
"....................................",
"...................................."};
